<?xml version="1.0" standalone="no"?>
<!DOCTYPE svg PUBLIC "-//W3C//DTD SVG 20010904//EN"
 "http://www.w3.org/TR/2001/REC-SVG-20010904/DTD/svg10.dtd">
<svg version="1.0" xmlns="http://www.w3.org/2000/svg"
 width="500.000000pt" height="500.000000pt" viewBox="0 0 500.000000 500.000000"
 preserveAspectRatio="xMidYMid meet">
<metadata>
Created by potrace 1.14, written by Peter Selinger 2001-2017
</metadata>
<g transform="translate(0.000000,500.000000) scale(0.100000,-0.100000)"
fill="#000000" stroke="none">
<path d="M2338 4425 c-2 -1 -32 -6 -68 -9 -36 -4 -74 -9 -85 -11 -11 -3 -31
-7 -45 -9 -114 -21 -164 -34 -295 -78 -207 -69 -363 -152 -544 -287 -79 -59
-264 -237 -323 -311 -37 -47 -158 -218 -158 -224 0 -2 -16 -29 -35 -61 -19
-32 -46 -90 -61 -129 -15 -39 -30 -75 -34 -81 -18 -24 -83 -248 -99 -340 -6
-33 -13 -71 -16 -85 -22 -115 -22 -378 0 -555 9 -68 46 -225 71 -297 113 -334
238 -546 449 -763 85 -87 127 -125 245 -219 42 -33 225 -142 297 -177 171 -82
425 -157 599 -176 87 -10 401 -10 474 -1 321 42 591 147 875 341 38 26 189
153 235 199 90 88 202 226 252 312 24 39 51 85 60 101 98 163 202 468 223 653
3 26 8 58 11 72 11 47 13 385 4 450 -27 183 -87 397 -155 550 -83 186 -231
403 -377 552 -68 70 -248 228 -259 228 -4 0 -44 25 -90 57 -91 61 -256 147
-304 159 -16 4 -34 10 -40 14 -25 18 -280 88 -380 104 -16 2 -50 8 -74 11 -43
7 -347 15 -353 10z m342 -119 c104 -11 262 -43 347 -71 82 -28 381 -172 423
-205 14 -11 61 -46 105 -79 99 -73 239 -209 324 -316 176 -220 311 -505 361
-764 28 -143 33 -203 32 -350 -1 -228 -25 -382 -92 -581 -155 -461 -468 -826
-895 -1042 -144 -73 -345 -146 -412 -150 -5 0 -18 -4 -30 -9 -12 -4 -53 -11
-90 -15 -37 -3 -77 -8 -88 -10 -28 -6 -322 -5 -365 0 -19 3 -60 7 -91 10 -154
15 -348 76 -530 166 -123 61 -261 147 -309 191 -14 13 -46 40 -70 59 -88 68
-233 227 -310 338 -149 217 -245 443 -285 674 -3 17 -8 34 -10 38 -2 3 -7 38
-10 76 -4 38 -8 80 -11 94 -5 32 -5 327 0 360 2 14 7 50 11 80 8 62 7 59 30
155 24 106 53 191 98 290 45 101 141 267 190 329 47 60 156 186 191 221 56 55
201 172 272 219 87 59 344 186 447 221 85 29 250 61 367 71 41 4 76 8 78 9 5
4 260 -3 322 -9z"/>
<path d="M2425 4140 c-25 -5 -29 -10 -27 -30 4 -40 17 -44 74 -29 30 8 99 14
160 14 60 0 108 3 108 7 0 7 -40 19 -106 33 -46 9 -174 12 -209 5z"/>
<path d="M2125 4079 c-11 -4 -33 -8 -49 -8 -81 -2 -326 -107 -481 -206 -197
-127 -414 -358 -539 -575 -20 -36 -41 -72 -46 -80 -46 -79 -120 -304 -146
-445 -18 -96 -25 -343 -12 -450 27 -229 109 -466 228 -660 128 -209 349 -423
555 -538 211 -117 315 -157 490 -192 167 -33 201 -36 360 -36 154 0 171 2 330
32 120 23 150 31 270 79 102 40 307 150 365 196 223 176 356 323 477 529 62
105 126 263 152 375 36 153 40 175 46 250 18 222 7 353 -45 555 -37 142 -42
156 -117 303 -127 249 -291 452 -467 577 -16 11 -34 25 -41 32 -21 20 -143 92
-234 138 -99 51 -272 110 -348 119 l-52 6 72 -73 c40 -41 86 -89 103 -108 22
-23 51 -40 93 -53 68 -21 208 -100 303 -172 132 -99 294 -282 394 -444 38 -61
99 -200 123 -280 29 -99 52 -202 59 -265 12 -117 6 -333 -12 -420 -32 -152
-113 -397 -151 -452 -1 -3 -134 50 -182 73 -18 8 -52 29 -75 47 -109 81 -177
113 -192 88 -6 -9 57 -229 73 -256 3 -5 7 -19 8 -29 4 -26 71 -156 93 -181 37
-42 31 -47 -14 -12 -26 20 -51 37 -55 39 -16 6 -100 140 -106 169 -10 46 -21
40 -85 -46 -48 -65 -127 -145 -144 -145 -7 0 -19 -7 -26 -16 -8 -8 -9 -14 -4
-13 19 5 121 -22 151 -41 47 -28 65 -62 70 -133 5 -57 3 -66 -17 -85 -71 -66
-297 -85 -505 -42 -68 14 -165 22 -165 13 0 -4 13 -20 29 -35 27 -26 48 -74
37 -85 -3 -3 -22 13 -44 36 -40 42 -71 56 -52 23 16 -29 46 -128 42 -141 -7
-21 -40 -12 -46 13 -3 14 -18 38 -32 55 -29 34 -71 41 -120 19 -24 -11 -28
-10 -49 16 -22 27 -23 28 -53 12 -17 -9 -35 -24 -41 -33 -14 -26 -24 -10 -16
25 7 32 34 66 74 94 13 9 21 20 18 25 -5 7 -113 8 -373 4 -56 -2 -119 1 -140
5 -50 9 -112 41 -124 64 -16 31 -11 87 12 136 30 65 82 88 203 88 99 1 137 -5
223 -33 31 -10 89 -24 127 -31 76 -14 113 -34 135 -74 17 -32 24 -33 38 -1 16
35 64 35 80 0 7 -14 12 -34 12 -43 0 -9 15 6 33 33 36 57 80 73 92 36 3 -12 3
-25 0 -31 -10 -17 1 -11 41 21 48 39 115 72 177 87 115 29 132 33 137 31 24
-10 180 109 180 137 0 8 4 14 9 14 9 0 53 93 81 174 13 40 16 64 10 90 -11 50
-26 65 -96 97 -34 15 -64 31 -67 36 -7 10 24 103 34 103 4 0 9 -19 12 -41 3
-23 11 -48 19 -55 12 -12 68 -28 68 -19 0 2 -11 20 -24 40 -31 45 -31 77 0
190 34 120 36 125 99 164 70 44 79 70 73 205 -5 104 -14 133 -73 231 -32 53
-31 61 8 61 42 0 93 36 74 52 -7 6 -18 7 -25 3 -22 -13 -72 1 -92 27 -11 13
-29 52 -39 86 -11 33 -22 70 -26 81 -4 12 9 4 33 -22 21 -23 50 -46 63 -51 33
-13 67 2 75 33 8 32 1 40 -23 27 -28 -15 -127 38 -185 99 -35 37 -54 49 -77
50 -17 1 -35 3 -41 4 -5 1 -19 3 -30 4 -12 0 -36 17 -56 36 -19 19 -43 35 -54
35 -18 0 -19 -5 -14 -55 6 -49 3 -60 -20 -95 -20 -30 -33 -40 -54 -41 -85 -2
-205 -24 -257 -45 -62 -26 -66 -37 -59 -182 4 -73 10 -132 14 -132 10 0 85 82
99 108 19 36 47 45 80 27 48 -24 124 -20 159 10 l29 24 22 -23 c53 -57 62
-188 15 -237 -49 -51 -49 -112 0 -145 36 -23 59 -13 46 21 -25 66 -6 104 63
120 37 10 63 46 71 99 12 75 -1 114 -46 143 -47 32 -68 69 -68 121 0 49 8 57
30 29 35 -45 42 -67 29 -83 -11 -13 -5 -22 35 -56 52 -44 119 -141 178 -258
34 -68 38 -84 39 -155 1 -54 -3 -89 -13 -108 -20 -36 -78 -100 -85 -93 -3 3 2
24 11 47 21 52 31 145 21 196 -6 32 -9 35 -15 18 -5 -11 -9 -35 -9 -53 -1 -34
-19 -69 -57 -112 -46 -53 -57 -134 -30 -238 19 -70 20 -85 6 -77 -5 3 -10 16
-10 27 0 28 -92 120 -98 96 -2 -9 9 -40 23 -68 35 -68 27 -86 -13 -28 -18 27
-34 64 -37 92 -4 26 -21 90 -38 144 -29 89 -35 98 -67 114 -19 9 -40 21 -46
26 -19 17 -52 23 -59 11 -4 -6 -9 -41 -10 -78 -3 -60 -9 -108 -19 -137 -12
-33 100 -191 120 -171 3 3 1 28 -4 54 -19 81 -24 145 -12 138 27 -16 54 -137
52 -227 -2 -42 -30 -117 -31 -83 -1 24 -37 85 -60 102 -9 6 -35 17 -59 23 -69
17 -87 44 -83 123 1 21 -3 27 -19 27 -20 0 -28 -18 -34 -75 -4 -40 13 -70 74
-135 50 -52 100 -143 100 -180 0 -32 -22 -79 -39 -85 -30 -9 -136 -117 -165
-168 -32 -54 -36 -91 -12 -115 15 -15 16 -13 16 23 1 22 7 51 14 64 l14 24 7
-24 c8 -23 41 -54 59 -54 5 0 10 18 11 40 3 52 2 52 28 24 12 -14 39 -37 59
-52 l37 -28 11 40 c21 78 102 96 116 26 13 -70 50 -22 38 50 -2 17 -6 61 -7
98 -3 55 -1 67 11 62 7 -3 15 -5 17 -5 2 0 8 -15 14 -32 6 -19 24 -40 41 -50
36 -20 39 -52 11 -115 -15 -33 -31 -48 -73 -69 -58 -29 -169 -64 -206 -64 -12
0 -44 -11 -70 -25 -135 -70 -371 -91 -488 -44 -16 6 -42 13 -58 15 -16 2 -67
22 -113 44 -98 46 -163 107 -185 172 -58 170 -61 203 -22 260 26 38 27 39 8
59 -15 17 -27 20 -60 15 -91 -12 -124 -46 -129 -133 -4 -63 18 -134 67 -220
18 -32 40 -71 48 -86 8 -16 25 -39 38 -53 14 -13 20 -24 14 -24 -23 0 -84 65
-134 142 l-52 80 -27 -57 c-14 -31 -37 -67 -50 -81 -32 -34 -128 -87 -164 -89
-16 -2 -57 -6 -90 -9 l-60 -6 55 18 c138 48 231 109 294 195 31 42 33 52 25
170 -1 26 -7 47 -13 47 -50 -2 -403 -117 -494 -161 -37 -18 -46 -19 -53 -8 -8
13 -9 18 -9 34 0 3 -11 27 -25 55 -41 82 -86 230 -110 370 -11 58 -14 341 -4
400 26 172 52 253 152 470 41 89 165 258 257 350 116 117 307 252 476 336 55
28 87 53 122 94 45 53 80 87 131 128 25 20 12 25 -24 11z m1100 -852 c9 -14
18 -57 21 -102 3 -44 7 -83 10 -87 10 -16 -20 -8 -40 11 -12 10 -34 23 -51 28
l-30 10 27 13 c33 16 52 65 44 115 -7 41 -2 44 19 12z m-317 -32 c18 -9 39
-29 46 -43 13 -26 13 -27 -13 -28 -14 -1 -53 -5 -87 -9 -42 -5 -68 -4 -84 5
-27 15 -15 25 39 33 58 9 58 24 -1 33 -29 4 -56 9 -60 10 -5 1 -11 2 -15 3 -5
1 -1 6 7 12 21 14 128 4 168 -16z m91 -1273 c-10 -31 -46 -86 -98 -148 -6 -7
-7 -15 -4 -18 4 -3 2 -6 -4 -6 -26 0 -30 84 -5 102 10 7 30 29 45 49 22 30 27
47 28 100 l1 64 25 -53 c22 -47 23 -56 12 -90z"/>
<path d="M2165 4048 c-59 -48 -71 -65 -114 -153 -35 -71 -45 -84 -95 -114 -31
-18 -69 -34 -85 -36 -60 -4 -101 -76 -101 -179 l0 -38 33 48 c21 32 58 66 107
99 113 75 160 127 194 215 23 58 42 88 87 133 48 48 54 57 35 57 -12 0 -39
-15 -61 -32z"/>
<path d="M2615 4063 c-11 -3 -24 -9 -29 -14 -6 -5 -18 -9 -28 -9 -21 0 -78
-54 -78 -73 0 -8 17 -35 38 -61 28 -34 46 -47 72 -51 131 -21 245 -77 345
-170 l50 -46 -67 5 c-36 3 -75 9 -85 12 -14 5 -14 2 5 -14 12 -11 63 -35 112
-53 50 -17 93 -36 97 -42 3 -6 1 -7 -6 -3 -6 4 -21 9 -34 11 -12 3 -44 9 -72
15 -50 10 -159 29 -204 34 -24 4 -58 37 -92 93 -20 32 -39 43 -39 23 0 -5 7
-28 16 -50 9 -23 14 -43 11 -46 -8 -9 -49 24 -81 65 l-28 36 5 -31 c9 -58 34
-91 89 -117 81 -38 127 -47 212 -42 71 4 82 2 124 -22 26 -15 69 -46 95 -71
34 -31 53 -42 65 -37 9 4 34 9 54 12 20 3 47 16 59 29 l22 23 -20 48 c-14 34
-35 60 -74 90 -94 74 -148 126 -190 184 -37 51 -48 59 -107 79 -44 15 -98 24
-156 26 -70 2 -93 7 -110 22 -12 11 -34 23 -51 27 -30 8 -29 8 20 22 34 9 85
13 163 10 61 -2 112 -2 112 0 0 14 -24 45 -51 64 -31 22 -120 34 -164 22z"/>
<path d="M2284 4030 c-56 -25 -99 -77 -114 -135 -29 -109 -71 -155 -202 -217
-102 -49 -131 -77 -183 -178 -23 -45 -52 -75 -110 -117 -28 -19 -36 -23 -51
-23 -4 0 -1 -7 6 -15 18 -21 40 -19 94 10 56 30 146 112 146 133 0 19 83 99
87 85 2 -6 -5 -37 -17 -69 -26 -72 -40 -144 -29 -144 15 0 63 72 66 99 1 14 4
35 7 46 2 11 5 35 5 53 1 24 6 32 19 32 26 0 152 68 173 93 36 44 48 84 52
177 5 89 6 95 33 117 16 13 40 24 54 25 23 1 55 4 90 7 23 2 -30 35 -61 37
-15 1 -44 -6 -65 -16z"/>
<path d="M2405 3917 c-47 -15 -80 -53 -111 -125 -32 -79 -57 -117 -98 -155
l-31 -28 35 7 c47 9 90 31 118 62 21 22 91 160 96 188 1 7 8 19 15 28 20 24 9
34 -24 23z"/>
<path d="M2550 3795 c7 -8 18 -15 26 -15 7 0 17 -6 21 -14 4 -7 31 -25 58 -40
28 -14 62 -35 76 -47 14 -11 36 -19 47 -17 21 3 21 3 -5 44 -14 22 -40 49 -57
60 -34 22 -109 44 -152 44 -22 0 -25 -2 -14 -15z"/>
<path d="M2412 3718 c-29 -44 -60 -76 -104 -106 -70 -47 -92 -54 -156 -52 -53
1 -121 -28 -122 -52 0 -21 17 -23 57 -7 15 6 50 11 77 10 49 -1 139 24 192 53
70 38 114 102 116 168 2 56 -17 52 -60 -14z"/>
<path d="M2006 3454 c-3 -9 -6 -32 -6 -52 0 -26 -6 -41 -20 -50 -11 -6 -33
-40 -48 -75 -31 -66 -62 -100 -102 -112 -52 -15 -121 -68 -142 -108 -23 -45
-21 -114 5 -163 l14 -27 6 47 c8 56 36 112 74 148 33 32 83 59 95 52 7 -4 -31
-65 -52 -84 -32 -28 -85 -150 -78 -177 1 -4 -1 -30 -6 -56 -7 -43 -13 -53 -64
-92 -76 -59 -95 -92 -87 -152 11 -80 52 -135 116 -153 51 -15 67 -13 41 6 -56
39 -86 162 -47 190 56 39 67 49 85 79 31 50 24 60 -16 25 -42 -36 -55 -33 -27
7 17 25 65 141 69 168 5 31 48 115 59 115 17 0 10 -33 -17 -83 -19 -36 -21
-62 -16 -189 1 -46 -34 -103 -85 -138 -26 -18 -36 -33 -39 -58 -5 -44 22 -103
55 -121 32 -17 43 -10 28 17 -11 21 -15 82 -5 82 3 0 28 -22 56 -50 l50 -50
-5 -60 c-3 -42 -13 -73 -31 -100 -31 -48 -32 -56 -6 -70 19 -10 23 -6 42 37
11 26 43 84 70 127 27 44 45 82 41 86 -4 4 -29 14 -54 23 -48 18 -98 64 -117
109 -10 24 -8 29 11 45 21 17 41 50 50 83 2 10 9 4 20 -17 43 -81 148 -78 195
6 21 37 25 57 23 104 -2 40 -19 33 -40 -17 -21 -48 -46 -63 -70 -43 -9 8 -24
17 -33 20 -10 4 -18 11 -18 17 0 5 -4 10 -10 10 -18 0 -10 -31 15 -56 32 -31
31 -34 -3 -34 -41 0 -62 28 -66 89 -5 60 10 67 58 26 41 -35 84 -32 99 7 9 24
-4 30 -25 12 -16 -16 -21 -16 -61 0 -62 23 -92 68 -88 130 1 17 5 15 30 -13
28 -32 74 -52 99 -43 10 3 10 9 -2 27 -25 38 -56 140 -50 168 2 15 14 42 25
62 12 19 18 35 15 35 -4 0 -2 9 4 21 14 26 15 106 2 122 -14 16 -13 29 3 47
17 19 21 48 12 83 -8 30 -22 35 -31 11z"/>
<path d="M1825 3354 c-44 -37 -112 -67 -154 -69 -20 0 -36 -5 -36 -10 0 -9 23
-10 96 -6 33 1 116 56 124 82 10 30 4 30 -30 3z"/>
<path d="M1848 3304 c-54 -69 -98 -94 -174 -100 -61 -4 -46 -44 16 -44 79 0
167 61 177 123 6 40 1 46 -19 21z"/>
<path d="M2198 3229 c-47 -12 -87 -42 -98 -72 l-10 -29 25 16 c61 39 73 44
118 44 26 0 50 -4 53 -9 3 -5 -8 -9 -24 -9 -17 0 -40 -9 -53 -20 l-24 -19 66
-1 c45 0 70 -5 78 -14 10 -12 6 -16 -23 -24 -36 -10 -147 -8 -165 3 -6 3 -11
1 -11 -4 0 -20 82 -71 114 -71 49 0 97 17 137 50 42 33 44 31 48 -50 3 -54 17
-78 35 -60 12 12 10 144 -4 185 -12 36 -55 68 -111 81 -46 10 -118 12 -151 3z"/>
<path d="M1651 3137 c-37 -19 -63 -60 -63 -101 0 -52 20 -127 42 -156 24 -32
36 -20 20 22 -28 79 -23 146 16 203 34 50 31 56 -15 32z"/>
<path d="M3328 3134 c-11 -10 13 -64 32 -74 42 -23 100 -2 100 36 0 11 -9 13
-40 8 -34 -6 -45 -3 -64 15 -12 12 -25 19 -28 15z"/>
<path d="M3205 2872 c-6 -4 -16 -19 -22 -34 -6 -14 -28 -47 -48 -73 -66 -87
-97 -181 -88 -273 5 -57 41 -102 79 -97 33 3 38 10 25 33 -18 34 -12 75 17
118 15 23 40 61 56 85 24 36 30 56 32 117 4 93 -18 148 -51 124z"/>
<path d="M2664 2786 c-3 -9 -14 -16 -24 -16 -10 0 -32 -11 -48 -25 -36 -30
-59 -31 -92 -5 -49 39 -137 14 -110 -31 7 -11 12 -10 29 5 19 17 20 17 35 -12
21 -42 69 -62 114 -50 20 6 46 17 59 25 13 8 32 13 43 10 49 -13 68 71 23 101
-20 13 -23 13 -29 -2z"/>
<path d="M2169 2703 c-5 -79 -63 -157 -125 -169 -36 -7 -40 -5 -85 45 -63 67
-77 66 -43 -5 43 -91 186 -104 246 -23 22 29 33 134 18 159 -8 12 -10 11 -11
-7z"/>
<path d="M2418 2643 c-9 -2 -21 -17 -28 -33 -7 -16 -18 -35 -26 -41 -17 -14
-18 -45 -3 -55 6 -3 25 4 41 16 l31 23 -8 -44 c-4 -24 -7 -57 -6 -72 2 -36 55
-103 87 -111 40 -11 48 -41 24 -92 -12 -24 -25 -44 -30 -44 -12 0 -42 -70 -42
-97 0 -27 62 -124 74 -117 10 6 0 75 -13 88 -18 20 -9 66 20 98 75 87 77 147
7 215 l-43 42 5 79 c2 45 0 87 -6 98 -13 24 -62 52 -84 47z"/>
<path d="M2764 2599 c28 -33 33 -78 17 -137 -9 -29 -8 -31 9 -22 24 13 30 32
30 91 0 40 -5 55 -25 74 -13 14 -31 25 -40 25 -13 0 -12 -6 9 -31z"/>
<path d="M2262 2607 c-23 -10 -82 -112 -82 -140 0 -20 -50 -62 -100 -85 -58
-25 -95 -66 -111 -122 -15 -54 -19 -117 -9 -145 6 -17 12 -12 39 37 18 31 47
72 65 92 47 49 76 87 76 98 0 6 -30 -7 -67 -27 -44 -24 -62 -30 -52 -18 22 28
40 41 94 69 52 28 74 46 92 79 11 19 12 18 23 -10 16 -42 6 -68 -53 -135 -159
-179 -191 -219 -208 -265 -23 -60 -24 -93 -5 -130 l14 -27 7 44 c6 34 19 56
66 104 43 45 61 73 70 107 10 43 50 97 70 97 12 0 11 -16 -5 -77 -19 -72 -55
-131 -88 -145 -38 -17 -45 -38 -10 -32 88 16 112 56 128 220 6 51 11 63 34 79
59 40 72 103 34 177 -20 38 -17 87 5 125 22 35 11 47 -27 30z"/>
<path d="M2570 2605 c-12 -14 -5 -55 10 -55 23 0 32 -101 14 -175 l-7 -30 24
21 c13 11 36 28 51 37 39 24 79 113 70 156 -4 19 -13 36 -20 39 -10 3 -11 -8
-6 -47 7 -53 1 -68 -45 -120 -30 -35 -34 -21 -10 34 20 45 20 49 4 91 -22 58
-59 80 -85 49z"/>
<path d="M2364 2378 c-10 -22 -33 -57 -51 -77 -52 -57 -45 -69 12 -20 20 18
38 29 41 26 3 -3 -14 -34 -38 -70 -24 -35 -49 -77 -55 -93 -24 -68 -43 -142
-48 -189 -4 -35 -13 -57 -32 -77 -39 -41 -10 -34 37 8 22 20 42 35 44 33 11
-14 -19 -73 -44 -87 -38 -22 -39 -34 -1 -21 40 14 67 47 80 96 16 60 31 63 31
6 0 -49 -11 -73 -57 -123 -36 -38 -73 -106 -73 -132 0 -36 22 -76 48 -87 20
-10 22 -9 16 13 -8 33 6 38 68 22 29 -7 55 -12 57 -10 3 2 -5 14 -16 27 -49
53 -55 99 -19 138 21 23 50 89 50 114 0 36 -19 93 -42 123 -35 46 -32 79 17
202 41 101 50 153 31 165 -5 3 -10 14 -10 25 0 36 -27 29 -46 -12z"/>
<path d="M2616 2308 c-3 -13 -6 -33 -6 -46 0 -13 -16 -56 -36 -97 -20 -41 -34
-80 -31 -87 4 -8 8 -5 12 10 4 12 15 22 26 22 10 0 17 -6 14 -12 -2 -7 -6 -36
-9 -65 -7 -58 -51 -143 -95 -183 -60 -54 -87 -112 -82 -175 1 -18 2 -18 14 4
16 32 29 32 45 -1 19 -40 98 -90 142 -91 62 0 63 1 26 38 -30 30 -34 40 -32
78 1 28 16 68 39 111 20 37 37 69 37 72 0 13 -56 -9 -78 -29 -49 -45 -70 -120
-53 -183 12 -42 -1 -36 -23 10 -22 46 -15 77 32 145 54 77 83 161 81 228 -3
61 5 70 53 67 62 -4 92 -92 55 -159 -10 -17 -12 -13 -18 33 -4 29 -10 56 -13
59 -14 15 -19 -11 -10 -61 7 -34 7 -61 0 -75 -14 -32 -1 -36 39 -11 67 42 90
136 53 223 -11 26 -24 47 -27 47 -24 0 -93 69 -107 107 -18 47 -38 56 -48 21z"/>
<path d="M2439 2230 c-47 -50 -62 -97 -48 -159 5 -25 14 -50 20 -57 5 -6 23
-36 40 -65 28 -51 30 -52 24 -19 -4 19 -15 53 -26 76 -28 59 -27 110 4 170 14
27 32 56 41 63 16 14 13 31 -6 31 -6 0 -28 -18 -49 -40z"/>
<path d="M2102 1915 c-40 -13 -79 -29 -86 -35 -22 -17 -28 -86 -11 -126 17
-41 28 -38 56 17 11 22 36 57 55 77 44 46 78 92 67 91 -4 -1 -41 -11 -81 -24z"/>
<path d="M2106 1768 c-18 -26 -21 -80 -6 -109 12 -22 30 -25 30 -6 0 20 33 47
58 47 26 0 39 18 17 26 -9 4 -22 19 -31 35 -18 35 -47 38 -68 7z"/>
<path d="M1850 1508 c-50 -22 -69 -43 -69 -78 0 -55 45 -80 157 -85 51 -2 94
2 145 17 40 11 92 20 116 19 54 0 135 -27 177 -57 l31 -23 -5 25 c-11 60 -170
155 -263 157 -32 0 -55 -5 -65 -15 -13 -13 -12 -17 6 -40 17 -23 18 -27 4 -32
-16 -6 -68 16 -79 33 -3 6 -22 4 -47 -5 -23 -8 -48 -12 -55 -10 -21 9 -15 45
13 71 47 44 11 56 -66 23z"/>
<path d="M3077 1494 c-3 -4 0 -16 8 -28 33 -46 7 -90 -45 -76 -14 4 -34 1 -45
-6 -11 -6 -33 -15 -50 -19 l-30 -6 33 33 c36 38 39 50 17 72 -25 25 -126 8
-187 -30 -21 -13 -41 -24 -45 -24 -5 0 -33 -24 -63 -52 -61 -58 -55 -71 21
-45 33 11 89 14 251 11 192 -3 213 -2 248 16 29 15 39 26 42 52 7 44 0 64 -28
83 -26 16 -116 30 -127 19z"/>
</g>
</svg>
